<svg xmlns="http://www.w3.org/2000/svg" viewBox="0 0 58.43 58.43"><defs><style>.cls-1{fill:#262626;fill-rule:evenodd;}</style></defs><title>ico-logo</title><g id="Capa_2" data-name="Capa 2"><g id="Capa_1-2" data-name="Capa 1"><path class="cls-1" d="M21.42,42.36c-.43-1.33-.8-1.6-2.24-1.67a1.79,1.79,0,0,0-1.87-1.93c.07-1.32-.24-1.79-1.52-2.33A1.84,1.84,0,0,0,14.69,34c.53-1.32.45-1.7-.4-2.53a9.82,9.82,0,0,0,.16-2.07c-.08-.59-.49-.88-1.24-.77a15.77,15.77,0,0,1-2.66,0c0-.08,0-.17,0-.26.83,0,1.65-.05,2.47,0,.48,0,1,.34,1.29-.23a5.11,5.11,0,0,0,.28-1.67c0-.18-.18-.37-.28-.56,1.15-1,1.27-1.41.83-2.57a4.8,4.8,0,0,0,1.1-1,5.55,5.55,0,0,0,.36-1.56,1.8,1.8,0,0,0,1.51-2.14,1.78,1.78,0,0,0,2.05-1.81,1.83,1.83,0,0,0,2.36-1.36c1.43.29,1.86.12,2.59-1A1.82,1.82,0,0,0,27.73,14a5.27,5.27,0,0,0,1.43.43A5.42,5.42,0,0,0,30.64,14c.88.89,1.28,1,2.59.41.93,1.16,1.34,1.31,2.57.89a1.81,1.81,0,0,0,2.37,1.38c.2,1.16.75,1.92,2,1.81.15,1.44.52,1.88,1.8,2.2a1.79,1.79,0,0,0,1.32,2.39,1.8,1.8,0,0,0,.82,2.61c-.66,1.23-.58,1.84.3,2.64a5,5,0,0,0-.55,1.46,4.59,4.59,0,0,0,.43,1.46,1.8,1.8,0,0,0-.54,2.58c-1.18.77-1.35,1.17-1.09,2.53-1.25.51-1.47.85-1.48,2.3a1.81,1.81,0,0,0-1.86,2c-1.47.08-1.9.39-2.23,1.64-1.36-.24-1.89,0-2.48,1.24a1.78,1.78,0,0,0-2.61.68c-1.39-.7-1.75-.66-2.73.29-1.14-.92-1.57-1-2.74-.27-1-1.08-1.4-1.19-2.64-.69C23.4,42.53,22.68,41.89,21.42,42.36Zm7.79-1.08A11.94,11.94,0,0,0,41.12,29.19a11.89,11.89,0,1,0-23.78,0A11.94,11.94,0,0,0,29.21,41.28Z"/><path class="cls-1" d="M43.22,15.43c1.35-1.94,2.68-3.89,4.06-5.81a4.18,4.18,0,0,1,1-.91,1.37,1.37,0,0,1,2,.13,1.41,1.41,0,0,1,.12,2,4.42,4.42,0,0,1-1,1c-1.95,1.28-3.92,2.52-5.88,3.78Z"/><path class="cls-1" d="M10.24,24.82c-2.56,0-5,0-7.38,0a3.44,3.44,0,0,1-1.31-.36,1.42,1.42,0,0,1-.86-1.73,1.32,1.32,0,0,1,1.54-1.13,12.38,12.38,0,0,1,2.85.8C6.79,23.12,8.45,24,10.24,24.82Z"/><path class="cls-1" d="M45.32,18.25c1.79-1.75,3.58-3.51,5.39-5.24a3.2,3.2,0,0,1,1-.61,1.38,1.38,0,0,1,1.82.59c.45.72.49,1.38-.2,1.88a16.56,16.56,0,0,1-3.13,1.79c-1.55.67-3.17,1.18-4.76,1.76Z"/><path class="cls-1" d="M12.83,18.53c-2-.77-4-1.51-6-2.33a7,7,0,0,1-1.71-1.07,1.43,1.43,0,0,1-.29-2.08,1.35,1.35,0,0,1,2-.45A7.65,7.65,0,0,1,8.5,13.82c1.52,1.49,3,3,4.46,4.57Z"/><path class="cls-1" d="M9.76,28.54c-2.53.34-5.06.69-7.59,1A3.1,3.1,0,0,1,1,29.38a1.33,1.33,0,0,1-1-1.56,1.31,1.31,0,0,1,1.27-1.33,7.28,7.28,0,0,1,2.17.12c2.12.49,4.22,1.07,6.32,1.62C9.77,28.33,9.76,28.44,9.76,28.54Z"/><path class="cls-1" d="M14.94,15.81c-2-1.29-4.08-2.58-6.1-3.9A3.53,3.53,0,0,1,7.94,11a1.43,1.43,0,0,1,.15-2,1.31,1.31,0,0,1,2-.09,8,8,0,0,1,1.58,1.6c1.2,1.69,2.32,3.43,3.47,5.16Z"/><path class="cls-1" d="M26,48.47c0,2.55,0,5.11,0,7.66a2.59,2.59,0,0,1-.33,1.07,1.49,1.49,0,0,1-2.81-.8A8.85,8.85,0,0,1,23.34,54c.72-1.88,1.53-3.73,2.3-5.59Z"/><path class="cls-1" d="M23.8,10.32c-1-2-2.07-4-3-6a5.52,5.52,0,0,1-.47-1.86A1.29,1.29,0,0,1,21.43,1a1.27,1.27,0,0,1,1.66.77,11.67,11.67,0,0,1,.65,2.73c.17,1.92.22,3.86.32,5.79Z"/><path class="cls-1" d="M19.37,46c-.79,2.25-1.56,4.51-2.37,6.76a4.28,4.28,0,0,1-.78,1.22,1.41,1.41,0,0,1-1.87.41,1.43,1.43,0,0,1-.69-1.92,4.83,4.83,0,0,1,.8-1.4c1.55-1.75,3.14-3.47,4.71-5.2Z"/><path class="cls-1" d="M30.71,9.77c-.23-2.61-.51-5.22-.66-7.84A1.6,1.6,0,0,1,31.48,0a1.38,1.38,0,0,1,1.63,1.37,7.24,7.24,0,0,1-.19,2.16C32.32,5.63,31.63,7.7,31,9.77Z"/><path class="cls-1" d="M48.18,24.59c2.37-1,4.74-2.08,7.13-3.1a2.58,2.58,0,0,1,1-.09,1.35,1.35,0,0,1,1.33,1.09,1.27,1.27,0,0,1-.53,1.62,4,4,0,0,1-1.74.57c-2.39.06-4.77,0-7.16,0Z"/><path class="cls-1" d="M47.08,21.33c1.94-1.35,3.87-2.72,5.84-4a4.72,4.72,0,0,1,1.65-.58,1.26,1.26,0,0,1,1.54,1,1.29,1.29,0,0,1-.61,1.74,17.55,17.55,0,0,1-3.17,1.13c-1.7.39-3.44.62-5.16.92Z"/><path class="cls-1" d="M14.08,41.58c-1.71,2-3.4,3.92-5.14,5.85A2.31,2.31,0,0,1,8,48a1.34,1.34,0,0,1-1.57-.52,1.27,1.27,0,0,1-.11-1.7,3.68,3.68,0,0,1,1-1c2.16-1.18,4.34-2.32,6.51-3.46Z"/><path class="cls-1" d="M39.47,45.89c1.57,1.74,3.16,3.47,4.7,5.22a4.19,4.19,0,0,1,.71,1.26,1.46,1.46,0,0,1-.7,1.93,1.4,1.4,0,0,1-1.88-.42,4.16,4.16,0,0,1-.73-1.16c-.82-2.21-1.6-4.44-2.4-6.67Z"/><path class="cls-1" d="M34.19,10.32c.18-2.47.35-4.93.57-7.4a3.69,3.69,0,0,1,.51-1.35A1.27,1.27,0,0,1,36.85.92,1.35,1.35,0,0,1,38,2.35a2.62,2.62,0,0,1-.13,1c-1.11,2.38-2.25,4.74-3.37,7.11Z"/><path class="cls-1" d="M37.5,11.48c.59-2.28,1.16-4.58,1.78-6.85a4.33,4.33,0,0,1,.65-1.29,1.42,1.42,0,0,1,2-.55,1.4,1.4,0,0,1,.71,1.85,6.28,6.28,0,0,1-.81,1.66c-1.33,1.79-2.71,3.54-4.06,5.31Z"/><path class="cls-1" d="M12.09,38.68C10,40.31,8,42,5.89,43.53a2.15,2.15,0,0,1-1.81.13A1.42,1.42,0,0,1,4,41.13a8.6,8.6,0,0,1,2.24-1.08c1.89-.61,3.81-1.11,5.72-1.66Z"/><path class="cls-1" d="M46.5,38.25c2.22.66,4.44,1.3,6.64,2a5,5,0,0,1,1.53.88A1.37,1.37,0,0,1,55,43a1.3,1.3,0,0,1-1.72.65,6.34,6.34,0,0,1-1.65-.84c-1.76-1.42-3.47-2.91-5.21-4.37Z"/><path class="cls-1" d="M47.87,35c2.48.32,5,.62,7.43,1a3.05,3.05,0,0,1,1.23.57A1.36,1.36,0,0,1,57,38.29a1.25,1.25,0,0,1-1.54.87,8.59,8.59,0,0,1-2.13-.71c-1.86-1-3.68-2.13-5.51-3.2Z"/><path class="cls-1" d="M48.78,28.1c2.21-.57,4.42-1.17,6.64-1.7a4.74,4.74,0,0,1,1.76,0,1.37,1.37,0,0,1,1.24,1.53,1.31,1.31,0,0,1-1.32,1.45A35.15,35.15,0,0,1,52.78,29c-1.33-.17-2.63-.49-3.95-.74Z"/><path class="cls-1" d="M36.22,47.35c1.27,2,2.56,4,3.8,6.08a4.31,4.31,0,0,1,.44,1.29,1.38,1.38,0,0,1-.94,1.8,1.29,1.29,0,0,1-1.86-.76,13,13,0,0,1-.85-2.85c-.32-1.82-.52-3.66-.77-5.48Z"/><path class="cls-1" d="M22.54,47.52c-.38,2.36-.73,4.73-1.15,7.09a4.34,4.34,0,0,1-.61,1.4A1.36,1.36,0,0,1,19,56.6,1.32,1.32,0,0,1,18,55a3.85,3.85,0,0,1,.41-1.38c1.25-2.1,2.56-4.16,3.84-6.24Z"/><path class="cls-1" d="M16.52,44c-1.2,2.09-2.38,4.2-3.61,6.27a3.7,3.7,0,0,1-1.08,1.07A1.34,1.34,0,0,1,10,51.25a1.26,1.26,0,0,1-.37-1.79,10.25,10.25,0,0,1,1.88-2.08c1.53-1.22,3.16-2.34,4.75-3.5Z"/><path class="cls-1" d="M11.16,21.68c-2.36-.5-4.72-1-7.08-1.53a4,4,0,0,1-1.23-.57,1.37,1.37,0,0,1-.55-1.83,1.28,1.28,0,0,1,1.6-.89,5.07,5.07,0,0,1,1.58.57c2,1.29,3.86,2.63,5.78,4Z"/><path class="cls-1" d="M10.71,35.48C8.41,36.7,6.14,38,3.81,39.11a2.27,2.27,0,0,1-1.7,0,1.43,1.43,0,0,1,0-2.56,6.88,6.88,0,0,1,2.29-.72c2.06-.28,4.13-.46,6.2-.67Z"/><path class="cls-1" d="M48.58,31.59c2.5-.14,5-.31,7.5-.4a2.46,2.46,0,0,1,1.56.5,1.75,1.75,0,0,1,.5,1.39,1.63,1.63,0,0,1-.94,1.12,3.81,3.81,0,0,1-2.05,0c-2.22-.71-4.4-1.53-6.59-2.31Z"/><path class="cls-1" d="M40.55,13.27c.88-2,1.71-4,2.65-6a7.09,7.09,0,0,1,1.35-1.79,1.28,1.28,0,0,1,1.83,0,1.29,1.29,0,0,1,.48,1.71,7.59,7.59,0,0,1-1.41,1.95C43.9,10.6,42.28,12,40.69,13.4Z"/><path class="cls-1" d="M17.63,13.48c-1.73-1.57-3.48-3.12-5.18-4.72a4.69,4.69,0,0,1-.91-1.32A1.4,1.4,0,0,1,12,5.52a1.36,1.36,0,0,1,2,.19,3.23,3.23,0,0,1,.72.87c1.08,2.25,2.12,4.51,3.17,6.76Z"/><path class="cls-1" d="M42.21,43.8c1.67,1.23,3.36,2.42,5,3.7a8.09,8.09,0,0,1,1.58,1.71,1.44,1.44,0,0,1-.34,2,1.36,1.36,0,0,1-2-.13,7.73,7.73,0,0,1-1.34-1.6c-1.07-1.83-2.07-3.7-3.09-5.55Z"/><path class="cls-1" d="M32.93,48.36c.89,2.33,1.8,4.65,2.67,7a3.51,3.51,0,0,1,.11,1.28,1.31,1.31,0,0,1-1.2,1.31,1.23,1.23,0,0,1-1.55-.7,5.42,5.42,0,0,1-.46-1.78c-.05-2.34,0-4.69,0-7Z"/><path class="cls-1" d="M20.57,11.73c-1.51-2.06-3-4.11-4.53-6.18a3,3,0,0,1-.43-1.21,1.41,1.41,0,0,1,.94-1.54,1.22,1.22,0,0,1,1.66.38,7.08,7.08,0,0,1,1,2.08c.57,2.1,1,4.22,1.54,6.34Z"/><path class="cls-1" d="M29.37,48.69c.46,2.15,1,4.3,1.37,6.46a6,6,0,0,1,0,2,1.38,1.38,0,0,1-1.66,1.27A1.31,1.31,0,0,1,27.78,57a30.31,30.31,0,0,1,.46-4.07c.25-1.42.64-2.82,1-4.23Z"/><path class="cls-1" d="M27.24,9.66c-.66-2.21-1.34-4.42-2-6.64a5,5,0,0,1-.11-1.52A1.45,1.45,0,0,1,26.59,0a1.34,1.34,0,0,1,1.5,1.06,3.43,3.43,0,0,1,.18,1.27c-.21,2.43-.46,4.86-.7,7.29Z"/><path class="cls-1" d="M9.86,32.09c-2.56.79-5.1,1.64-7.68,2.33a1.38,1.38,0,0,1-1.84-.9c-.41-1.17.28-2.15,1.71-2.17,1.86,0,3.71.12,5.57.22.72,0,1.44.13,2.16.2Z"/><path class="cls-1" d="M44.6,41.18c2.16,1.11,4.34,2.21,6.48,3.36a3.6,3.6,0,0,1,1,.93,1.5,1.5,0,0,1-2,2.22A13.31,13.31,0,0,1,48,45.75c-1.22-1.42-2.35-2.92-3.52-4.39Z"/><path class="cls-1" d="M13.61,31.53l-3,.36c0-.1,0-.19,0-.29l2.93-.51Z"/><path class="cls-1" d="M11.09,24.88l2.87.68-.09.35L11,25.23Z"/><path class="cls-1" d="M16,20.69,13.52,19l.17-.26,2.52,1.6Z"/><path class="cls-1" d="M22.15,15l-1.23-2.7.25-.12,1.35,2.64Z"/><path class="cls-1" d="M17,43l1.81-2.1.27.23-1.79,2.09Z"/><path class="cls-1" d="M34.32,11.1,33.54,14l-.37-.1L34,11Z"/><path class="cls-1" d="M45,28.24h2.82c0,.06,0,.12,0,.19L45,28.61C45,28.49,45,28.37,45,28.24Z"/><path class="cls-1" d="M46.82,35l-2.67-.81.11-.36,2.65.85Z"/><path class="cls-1" d="M45.67,38.14,43,36.77l.17-.33,2.63,1.42Z"/><path class="cls-1" d="M46.37,22,43.7,23.13l-.15-.33,2.68-1.16Z"/><path class="cls-1" d="M26.63,44.79l-.57,2.88-.28-.05.45-2.91Z"/><path class="cls-1" d="M29.42,45v3h-.24v-3Z"/><path class="cls-1" d="M35.82,14.9l1.32-2.64.28.14-1.26,2.67Z"/><path class="cls-1" d="M27.64,10.48,28,13.4l-.39,0q-.12-1.45-.23-2.9Z"/><path class="cls-1" d="M14.31,34.25l-2.77.88-.1-.29,2.74-1Z"/><path class="cls-1" d="M15.55,36.78l-2.7,1.43-.15-.28,2.67-1.48Z"/><path class="cls-1" d="M44.62,25.39l2.88-.59.06.26-2.87.75Z"/><path class="cls-1" d="M22.59,46.44l1-2.65.32.12-1,2.64Z"/><path class="cls-1" d="M18.39,14l1.68,2.27-.3.22-1.65-2.31Z"/><path class="cls-1" d="M39.76,40.89,41.6,43l-.24.21-1.88-2.06Z"/><path class="cls-1" d="M15.82,16.2l2.1,1.93-.27.28-2-2Z"/><path class="cls-1" d="M21.36,42.77l-1.52,2.52-.28-.16L21,42.58Z"/><path class="cls-1" d="M42.79,16.46,40.9,18.53l-.42-.43,2-1.94Z"/><path class="cls-1" d="M35.64,46.62l-1-2.63.35-.13,1,2.7Z"/><path class="cls-1" d="M31,10.73l-.26,2.73-.35,0q.12-1.37.23-2.74Z"/><path class="cls-1" d="M32.4,47.42l-.52-2.75.35-.07.52,2.74Z"/><path class="cls-1" d="M38.26,16.35l1.65-2.29.28.2-1.62,2.29Z"/><path class="cls-1" d="M14.63,23.18,12.16,22.1l.14-.32,2.48,1Z"/><path class="cls-1" d="M41.76,38.85l2.09,1.73-.2.25-2.12-1.69Z"/><path class="cls-1" d="M44.85,31.07l2.8.37,0,.31-2.8-.32Z"/><path class="cls-1" d="M38.61,45.13l-1.39-2.28.32-.2,1.36,2.29Z"/><path class="cls-1" d="M44.81,19l-2.27,1.57-.22-.31,2.28-1.51Z"/><path class="cls-1" d="M17.07,39.16l-2.29,1.79-.19-.24,2.23-1.85Z"/><path class="cls-1" d="M24.78,13.93l-.7-2.64.31-.08.76,2.62Z"/></g></g></svg>