<?xml version="1.0" encoding="utf-8"?>
<!-- Generator: Adobe Illustrator 21.0.2, SVG Export Plug-In . SVG Version: 6.00 Build 0)  -->
<svg version="1.1" id="Capa_1" xmlns="http://www.w3.org/2000/svg" xmlns:xlink="http://www.w3.org/1999/xlink" x="0px" y="0px"
	 viewBox="0 0 116.9 127.9" style="enable-background:new 0 0 116.9 127.9;" xml:space="preserve">
<style type="text/css">
	.st0{fill:#FFFFFF;}
</style>
<title>logo-regalar</title>
<g id="Capa_2">
	<g id="Capa_1-2">
		<path class="st0" d="M19.7,93.8c-0.7,0.5-1.6,0.8-2.5,0.7c-0.9,0-1.7-0.4-2.2-1.1c-0.6-0.7-0.9-1.6-0.9-2.6c0-0.4,0.1-0.7,0.1-1.1
			l1.1-5.2c0.1-0.4,0.1-0.7,0.1-1.1c0-1.8-1.2-2.6-3.6-2.6H8.4L6,93h3.4l-0.1,0.9H0V93h2.6l4.6-23.8H4.7v-0.9h8.7
			c1.3,0,2.7,0.2,3.9,0.8c1,0.5,1.8,1.3,2.4,2.2c0.5,0.9,0.8,1.9,0.8,3c0,1-0.2,2-0.7,2.8c-0.5,0.9-1.2,1.7-2.1,2.3
			c-1,0.6-2.2,1-3.4,1.2v0.1c1.2,0.1,2.3,0.5,3.3,1.1c0.8,0.5,1.3,1.4,1.2,2.3c0,0.3,0,0.6-0.1,0.8l-1.4,6.6c-0.1,0.3-0.1,0.7-0.1,1
			c0,0.9,0.3,1.4,1,1.4c1.1,0,1.9-0.8,2.6-2.4h0.4C20.9,92.4,20.4,93.2,19.7,93.8z M15.7,78.4c0.7-1.1,1.1-2.5,1.1-3.8
			c0-1.3-0.3-2.6-1-3.7c-0.6-1-1.7-1.6-2.9-1.6h-2.3L8.5,80h4.1C13.8,80,15,79.4,15.7,78.4L15.7,78.4z"/>
		<path class="st0" d="M32.8,93.3c-1.2,0.7-2.5,1-3.8,1c-1.3,0-2.7-0.3-3.9-0.9c-1.2-0.6-2.2-1.5-3-2.6c-0.8-1.2-1.2-2.5-1.2-3.9
			c0-1.9,0.5-3.8,1.5-5.5c0.9-1.5,2.2-2.7,3.7-3.5c1.4-0.8,2.9-1.2,4.5-1.2c1.3,0,2.6,0.4,3.7,1.1c1,0.7,1.6,2,1.5,3.2
			c0.1,1.2-0.2,2.4-0.9,3.4c-0.8,0.9-1.8,1.5-3,1.8C30,86.6,28,86.8,26,86.7c-0.9,0-1.6,0-2.1,0c0,0.5-0.1,0.8-0.1,1.1
			c-0.1,1.7,0.5,3.3,1.6,4.6c1.1,1,2.5,1.6,4,1.6c1,0,2.1-0.3,2.9-0.9c1.1-0.7,1.9-1.6,2.6-2.7h0.3C34.8,91.6,33.9,92.6,32.8,93.3z
			 M25.1,86.1c1.5,0,3-0.1,4.4-0.6c1-0.3,1.9-1,2.4-1.9c0.6-1.1,0.8-2.2,0.8-3.4c0.1-0.8-0.2-1.7-0.8-2.3c-0.5-0.5-1.2-0.8-1.9-0.8
			c-0.9,0.1-1.8,0.5-2.4,1.2c-0.9,0.9-1.7,2-2.2,3.2c-0.7,1.4-1.1,3-1.3,4.6L25.1,86.1z"/>
		<path class="st0" d="M49.1,97.6c-1,1.5-2.3,2.7-3.8,3.6c-1.2,0.8-2.6,1.2-4.1,1.2c-2.2,0.1-4.1-1.6-4.2-3.8c0-0.2,0-0.3,0-0.5
			c0-0.7,0.2-1.3,0.6-1.9c0.3-0.4,0.8-0.7,1.3-0.7c0.4,0,0.8,0.2,1,0.5c0.3,0.4,0.4,0.8,0.4,1.3c0,0.3-0.1,0.6-0.2,0.8
			c-0.2,0.3-0.4,0.5-0.6,0.7c-0.2,0.2-0.4,0.5-0.6,0.7c-0.1,0.2-0.2,0.5-0.2,0.8c0,0.5,0.3,0.8,0.8,1c0.5,0.3,1.1,0.4,1.7,0.4
			c1.9-0.1,3.6-1.1,4.4-2.8c1.4-2.5,2.4-5.2,2.8-8l0.1-0.4c-0.4,0.7-1,1.3-1.8,1.7c-0.9,0.4-1.8,0.5-2.8,0.5c-1.2,0-2.4-0.3-3.4-0.9
			c-1-0.6-1.7-1.5-2.3-2.5c-0.5-1-0.8-2.2-0.8-3.4c0-1.8,0.4-3.6,1.2-5.2c0.7-1.4,1.7-2.5,3-3.3c1.2-0.7,2.5-1.1,3.9-1.1
			c1.1,0,2.1,0.3,3,0.8c0.9,0.5,1.7,1.3,2.2,2.3l0.2-0.8l0.4-1.8h5.1v0.5h-2.3l-2.7,14.5C51,93.9,50.2,95.9,49.1,97.6z M48.8,77.6
			c-0.7-0.5-1.6-0.8-2.5-0.8c-1.1,0-2.1,0.5-2.9,1.3c-1,1-1.7,2.2-2.2,3.5c-0.6,1.5-0.8,3.1-0.8,4.7c0,1.2,0.2,2.3,0.7,3.3
			c0.4,0.9,1,1.6,1.7,2.1c0.6,0.5,1.4,0.7,2.2,0.8c0.8,0,1.5-0.3,2.1-0.7c0.7-0.5,1.3-1.2,1.6-2l2-9.8C50.3,79,49.7,78.2,48.8,77.6
			L48.8,77.6z"/>
		<path class="st0" d="M71.1,93.1c0,0.5,0.2,0.8,0.6,0.8s0.8-0.3,1.3-1c0.5-0.7,1-1.5,1.2-2.4h0.2c-0.3,0.9-0.7,1.7-1.3,2.5
			c-0.4,0.7-1.1,1.1-1.8,1.2c-1.6,0-2.6-1.2-2.8-3.7c-0.4,1.1-1.1,2.2-2.1,2.9c-1.1,0.6-2.3,0.9-3.5,0.8c-1.3,0-2.6-0.3-3.7-1
			c-1.1-0.7-1.9-1.6-2.5-2.7c-0.6-1.1-0.9-2.4-0.9-3.7c-0.1-2,0.4-3.9,1.3-5.7c0.7-1.5,1.9-2.8,3.3-3.7c1.3-0.8,2.7-1.2,4.2-1.2
			c1.2,0,2.4,0.3,3.4,0.9c1,0.6,1.9,1.5,2.4,2.6l1.7-2.8h2l-2.9,15.3C71.1,92.5,71.1,92.8,71.1,93.1z M68.1,77.7
			c-0.8-0.6-1.8-0.9-2.8-0.9c-1.2,0-2.3,0.5-3.2,1.4c-1.1,1.1-1.9,2.4-2.4,3.8c-0.6,1.7-0.9,3.4-0.9,5.2c0,1.3,0.2,2.5,0.7,3.7
			c0.4,0.9,1,1.7,1.9,2.3c0.7,0.5,1.6,0.8,2.4,0.8c1.1,0,2.2-0.5,3-1.3c1-1,1.6-2.4,1.8-3.8l1.6-8.4C69.8,79.2,69.1,78.3,68.1,77.7
			L68.1,77.7z"/>
		<path class="st0" d="M79.5,68.3h5.1l-4.7,25.2h1.7v0.4h-6.8v-0.4h1.8l4.9-24.7h-2L79.5,68.3z"/>
		<path class="st0" d="M98,93.1c0,0.5,0.2,0.8,0.6,0.8s0.8-0.3,1.3-1c0.5-0.7,1-1.5,1.2-2.4h0.2c-0.3,0.9-0.7,1.7-1.3,2.5
			c-0.4,0.7-1.1,1.1-1.8,1.2c-1.6,0-2.6-1.2-2.8-3.7c-0.7,2.5-3.1,4-5.7,3.7c-1.3,0-2.6-0.3-3.7-1c-1.1-0.7-1.9-1.6-2.5-2.7
			c-0.6-1.1-0.9-2.4-0.9-3.7c-0.1-2,0.4-3.9,1.3-5.7c0.8-1.5,1.9-2.8,3.3-3.7c1.3-0.8,2.7-1.2,4.2-1.2c1.2,0,2.4,0.3,3.4,0.9
			c1,0.6,1.9,1.5,2.4,2.6l1.7-2.8h2l-2.9,15.3C98,92.5,98,92.8,98,93.1z M95,77.7c-0.8-0.6-1.8-0.9-2.8-0.9c-1.2,0-2.3,0.5-3.2,1.4
			c-1.1,1.1-1.9,2.4-2.4,3.8c-0.6,1.7-0.9,3.4-0.9,5.2c0,1.3,0.2,2.5,0.7,3.7c0.4,0.9,1,1.7,1.9,2.3c0.7,0.5,1.6,0.8,2.4,0.8
			c1.1,0,2.2-0.5,3-1.3c1-1,1.6-2.4,1.8-3.8l1.6-8.4C96.8,79.2,96,78.3,95,77.7z"/>
		<path class="st0" d="M111.4,77.3c0.7-0.7,1.6-1,2.5-1.1c0.9,0,1.6,0.4,2.1,1.2c0.6,1,0.9,2.1,0.8,3.3c0.1,0.8-0.1,1.5-0.5,2.2
			c-0.3,0.5-0.8,0.8-1.4,0.8c-0.6,0-1.1-0.2-1.5-0.6c-0.4-0.4-0.6-0.9-0.6-1.4c0-0.7,0.3-1.4,0.9-1.7c0.6-0.5,0.9-1.2,0.9-1.9
			c0-0.3-0.1-0.6-0.3-0.9c-0.2-0.2-0.5-0.4-0.8-0.3c-1,0.1-1.9,0.5-2.5,1.3c-0.9,1-1.5,2.2-1.8,3.6l-2.2,11.8h1.7v0.4h-6.6v-0.4h1.8
			l3-16h-1.8v-0.5h4.4l-0.5,3.4C109.7,79.2,110.5,78.2,111.4,77.3z"/>
		<circle class="st0" cx="91.5" cy="124.4" r="2.5"/>
		<path class="st0" d="M20.5,106.9c-0.1-2.8-1.5-4.1-4.2-4l-5.7,0.2L9,113.4l3.4-0.1c1.7,0,2.9-1.3,3.4-3.9h0.5l-1,9.3h-0.4
			c-0.1-3.1-1-4.6-2.8-4.5l-3.3,0.1l-2,11.9l2.8-0.1v0.9l-7.9,0.2v-0.9l2-0.1l3.7-23.1l-2.5,0.1v-0.9l17.1-0.5l-1,6.2h-0.5
			C20.5,107.5,20.5,107.1,20.5,106.9z"/>
		<path class="st0" d="M24.5,102.1h5l-4.6,24.4h1.6v0.4H20v-0.4h1.8l4.7-24h-2L24.5,102.1z"/>
		<path class="st0" d="M30.7,114.1c1-1.3,2.3-2.3,3.8-3c1.4-0.7,2.9-1,4.4-1c1.2,0,2.4,0.3,3.5,0.8c1.1,0.5,2,1.3,2.6,2.3
			c0.7,1.1,1,2.4,1,3.8c0,0.7-0.1,1.3-0.2,1.9c-0.3,1.8-1.1,3.4-2.2,4.9c-1,1.3-2.3,2.3-3.7,3.1c-1.3,0.7-2.8,1-4.2,1
			c-1.2,0-2.5-0.3-3.6-0.8c-1.1-0.5-2-1.3-2.7-2.4c-0.7-1.1-1-2.5-1-3.8c0-0.7,0.1-1.3,0.2-2C28.9,117.1,29.6,115.5,30.7,114.1z
			 M35.5,111.5c-1,0.8-1.9,1.8-2.5,3c-0.7,1.3-1.2,2.6-1.4,4c-0.2,1.2-0.4,2.4-0.4,3.6c0,3.6,1.5,5.5,4.6,5.5c1.1,0,2.2-0.5,3.1-1.3
			c1.1-0.9,1.9-2,2.5-3.3c0.7-1.3,1.2-2.8,1.5-4.2c0.2-1.1,0.3-2.2,0.3-3.3c0-3.4-1.5-5.1-4.5-5.1C37.6,110.3,36.4,110.8,35.5,111.5
			z"/>
		<path class="st0" d="M53.6,110.8c0.7-0.6,1.5-1,2.4-1c0.8,0,1.6,0.4,2.1,1.1c0.6,0.9,0.9,2.1,0.8,3.2c0.1,0.7-0.1,1.5-0.5,2.1
			c-0.3,0.5-0.8,0.8-1.3,0.8c-0.5,0-1.1-0.2-1.4-0.6c-0.4-0.4-0.6-0.9-0.5-1.4c0-0.7,0.3-1.3,0.9-1.7c0.6-0.5,0.9-1.1,0.9-1.9
			c0-0.3-0.1-0.6-0.2-0.8c-0.2-0.2-0.4-0.4-0.7-0.3c-0.9,0.1-1.8,0.5-2.4,1.3c-0.9,1-1.5,2.2-1.8,3.4l-2.2,11.4h1.7v0.4h-6.4v-0.4
			h1.7l2.9-15.6h-1.7v-0.4H52l-0.4,3.3C52,112.6,52.7,111.6,53.6,110.8z"/>
		<path class="st0" d="M71,126.3c-1.1,0.7-2.4,1-3.7,1c-1.3,0-2.6-0.3-3.8-0.9c-1.2-0.6-2.2-1.4-3-2.5c-0.8-1.1-1.2-2.5-1.1-3.8
			c0-1.9,0.4-3.7,1.4-5.3c0.9-1.4,2.1-2.6,3.6-3.4c1.3-0.8,2.8-1.2,4.4-1.2c1.3,0,2.6,0.3,3.6,1.1c1,0.7,1.6,1.9,1.5,3.1
			c0.1,1.2-0.2,2.3-0.9,3.3c-0.7,0.9-1.8,1.5-2.9,1.7c-1.9,0.4-3.8,0.6-5.7,0.5c-0.9,0-1.5,0-2,0c0,0.5-0.1,0.8-0.1,1
			c-0.1,1.6,0.5,3.2,1.6,4.4c1,1,2.4,1.5,3.9,1.5c1,0,2-0.3,2.8-0.9c1-0.7,1.8-1.5,2.4-2.6h0.3C73,124.6,72.1,125.6,71,126.3z
			 M63.6,119.3c1.4,0,2.9-0.1,4.3-0.6c1-0.3,1.8-0.9,2.3-1.8c0.5-1,0.8-2.2,0.7-3.3c0.1-0.8-0.2-1.6-0.8-2.2
			c-0.5-0.5-1.2-0.8-1.9-0.8c-0.9,0.1-1.7,0.5-2.3,1.1c-0.9,0.9-1.6,1.9-2.1,3.1c-0.6,1.4-1.1,2.9-1.3,4.4L63.6,119.3z"/>
		<path class="st0" d="M86.6,113c0.4-0.3,0.7-0.7,0.9-1.2c0.1-0.2,0-0.5-0.1-0.7c-0.2-0.3-0.5-0.6-0.9-0.7c-0.5-0.2-1.1-0.3-1.7-0.3
			c-1.1-0.1-2.2,0.3-3.1,1c-0.7,0.6-1.1,1.5-1.1,2.5c0,0.5,0.2,1,0.5,1.3c0.5,0.5,1.1,0.9,1.7,1.3c0.5,0.3,1,0.6,1.5,1
			c2.5,1.9,3.7,3.8,3.7,5.6c0,0.9-0.3,1.7-0.9,2.3c-0.7,0.7-1.7,1.3-2.7,1.6c-1.3,0.4-2.7,0.6-4.1,0.6c-1,0-2-0.2-2.9-0.7
			c-0.9-0.4-1.6-1-2.2-1.7c-0.5-0.6-0.8-1.4-0.8-2.2c0-0.7,0.3-1.3,0.8-1.8c0.4-0.5,1-0.7,1.6-0.8c0.5,0,1,0.2,1.4,0.5
			c0.4,0.3,0.6,0.7,0.6,1.2c0,0.3,0,0.5-0.2,0.7c-0.1,0.2-0.3,0.4-0.5,0.5c-0.5,0.4-0.9,1-1.2,1.6c-0.1,0.4,0.1,0.8,0.4,1.1
			c0.5,0.4,1,0.7,1.6,0.8c0.6,0.2,1.2,0.3,1.8,0.3c1.1,0.1,2.3-0.2,3.2-0.8c0.7-0.5,1.1-1.2,1.1-2.1c0-0.7-0.2-1.4-0.5-2
			c-0.3-0.6-0.8-1.1-1.3-1.6c-0.5-0.5-1.2-1-2.1-1.6c-1-0.7-1.9-1.4-2.7-2.3c-0.6-0.6-0.9-1.4-0.9-2.3c0-0.3,0.1-0.6,0.1-0.9
			c0.3-1.2,1.1-2.1,2.2-2.7c1.5-0.7,3.1-1.1,4.7-1c1,0,2,0.2,2.8,0.6c0.8,0.4,1.4,0.9,1.9,1.6c0.4,0.6,0.6,1.3,0.6,2
			c0,0.7-0.2,1.3-0.7,1.8c-0.5,0.4-1.1,0.6-1.7,0.6c-0.4,0-0.9-0.1-1.2-0.4c-0.3-0.3-0.5-0.7-0.5-1.1c0-0.7,0.4-1.4,1-1.8L86.6,113z
			"/>
		<path class="st0" d="M104.9,126.7c-0.9,0.5-1.9,0.8-2.9,0.8c-2,0.1-3.9-0.6-5.4-1.8c-1.4-1.4-2.1-3.3-2-5.2c0-1.7,0.3-3.5,1-5.1
			c0.6-1.6,1.6-3,3-4c1.4-1.1,3.2-1.6,5-1.5c1.3-0.1,2.5,0.3,3.5,1.1c0.9,0.8,1.4,1.9,1.3,3.1c0,1.6-0.6,2.3-1.7,2.3
			c-0.3,0-0.6-0.1-0.9-0.3c-0.2-0.2-0.4-0.6-0.3-0.9c0-0.4,0.1-0.8,0.4-1.1c0.3-0.3,0.6-0.4,1-0.4c0.4,0,0.7,0.2,1,0.4
			c0-0.7-0.2-1.4-0.6-2c-0.4-0.5-0.8-1-1.4-1.3c-0.5-0.3-1.1-0.4-1.7-0.4c-1.4,0-2.7,0.6-3.5,1.7c-1.1,1.2-1.9,2.7-2.3,4.3
			c-0.5,1.6-0.8,3.4-0.8,5.1c0,1,0.2,2.1,0.6,3.1c0.3,0.8,0.9,1.5,1.6,2c0.7,0.4,1.4,0.7,2.2,0.7c0.9,0,1.8-0.3,2.6-0.7
			c0.9-0.5,1.8-1.3,2.4-2.1h0.5C106.7,125.3,105.9,126.1,104.9,126.7z"/>
		<path class="st0" d="M111.9,102.1h5l-4.6,24.4h1.7v0.4h-6.6v-0.4h1.8l4.7-24h-2L111.9,102.1z"/>
		<path class="st0" d="M50.5,42.4c-0.4-1.3-0.8-1.6-2.2-1.7c0.1-1-0.7-1.8-1.6-1.9c-0.1,0-0.2,0-0.2,0c0.1-1.3-0.2-1.8-1.5-2.3
			c0.4-0.9-0.1-2-1-2.4c0,0-0.1,0-0.1,0c0.5-1.3,0.5-1.7-0.4-2.5c0.1-0.7,0.2-1.4,0.2-2.1c-0.1-0.6-0.5-0.9-1.2-0.8
			c-0.9,0.1-1.8,0.1-2.7,0c0-0.1,0-0.2,0-0.3c0.8,0,1.7,0,2.5,0c0.5,0,1,0.3,1.3-0.2c0.2-0.5,0.3-1.1,0.3-1.7c0-0.2-0.2-0.4-0.3-0.6
			c1.2-1,1.3-1.4,0.8-2.6c0.4-0.3,0.8-0.6,1.1-1c0.2-0.5,0.3-1,0.4-1.6c1-0.1,1.7-1.1,1.5-2c0,0,0-0.1,0-0.1c1,0.1,1.9-0.5,2-1.5
			c0-0.1,0-0.2,0-0.3c1,0.3,2-0.2,2.3-1.2c0-0.1,0-0.1,0.1-0.2c1.4,0.3,1.9,0.1,2.6-1c0.8,0.6,1.9,0.4,2.5-0.4c0,0,0-0.1,0.1-0.1
			c0.5,0.2,0.9,0.4,1.4,0.4c0.5-0.1,1-0.2,1.5-0.4c0.9,0.9,1.3,1,2.6,0.4c0.9,1.2,1.3,1.3,2.6,0.9c0.2,1,1.1,1.6,2.1,1.4
			c0.1,0,0.2,0,0.3-0.1c0.2,1.2,0.8,1.9,2,1.8c0.2,1.4,0.5,1.9,1.8,2.2c-0.4,0.9,0.1,2,1,2.3c0.1,0,0.2,0.1,0.3,0.1
			c-0.5,0.8-0.3,2,0.6,2.5c0.1,0,0.2,0.1,0.2,0.1c-0.7,1.2-0.6,1.8,0.3,2.6c-0.3,0.5-0.4,1-0.5,1.5c0.1,0.5,0.2,1,0.4,1.5
			c-0.9,0.5-1.1,1.6-0.6,2.5c0,0,0,0.1,0.1,0.1c-1.2,0.8-1.3,1.2-1.1,2.5c-1.2,0.5-1.5,0.8-1.5,2.3c-1,0-1.8,0.7-1.9,1.7
			c0,0.1,0,0.2,0,0.3c-1.5,0.1-1.9,0.4-2.2,1.6c-1.4-0.2-1.9,0-2.5,1.2c-0.8-0.6-1.9-0.4-2.5,0.5c-0.1,0.1-0.1,0.1-0.1,0.2
			c-1.4-0.7-1.8-0.7-2.7,0.3c-1.1-0.9-1.6-1-2.7-0.3c-1-1.1-1.4-1.2-2.6-0.7C52.5,42.5,51.8,41.9,50.5,42.4z M58.3,41.3
			c6.6,0,11.9-5.4,11.9-12c0,0,0-0.1,0-0.1c0-6.6-5.3-11.9-11.9-11.9s-11.9,5.3-11.9,11.9c0,0,0,0,0,0
			C46.4,35.8,51.7,41.2,58.3,41.3C58.3,41.3,58.3,41.3,58.3,41.3z"/>
		<path class="st0" d="M72.3,15.4c1.4-1.9,2.7-3.9,4.1-5.8c0.3-0.4,0.6-0.7,1-0.9c0.6-0.5,1.4-0.5,1.9,0.1c0,0,0,0,0.1,0.1
			c0.6,0.5,0.6,1.4,0.1,2c0,0,0,0,0,0c-0.3,0.4-0.6,0.7-1,1c-1.9,1.3-3.9,2.5-5.9,3.8L72.3,15.4z"/>
		<path class="st0" d="M39.4,24.8c-2.6,0-5,0-7.4,0c-0.5,0-0.9-0.2-1.3-0.4c-0.7-0.3-1.1-1-0.9-1.7c0.1-0.7,0.8-1.2,1.5-1.1
			c0,0,0,0,0.1,0c1,0.2,1.9,0.4,2.8,0.8C35.9,23.1,37.6,24,39.4,24.8z"/>
		<path class="st0" d="M74.4,18.2c1.8-1.8,3.6-3.5,5.4-5.2c0.3-0.3,0.6-0.5,1-0.6c0.7-0.3,1.5-0.1,1.8,0.6c0.4,0.7,0.5,1.4-0.2,1.9
			c-1,0.7-2,1.3-3.1,1.8c-1.6,0.7-3.2,1.2-4.8,1.8L74.4,18.2z"/>
		<path class="st0" d="M42,18.5c-2-0.8-4-1.5-6-2.3c-0.6-0.3-1.2-0.6-1.7-1.1c-0.6-0.5-0.8-1.3-0.4-2c0,0,0-0.1,0.1-0.1
			c0.3-0.7,1.2-0.9,1.8-0.6c0.1,0,0.1,0.1,0.2,0.1c0.6,0.3,1.2,0.7,1.7,1.2c1.5,1.5,3,3,4.5,4.6L42,18.5z"/>
		<path class="st0" d="M38.9,28.5c-2.5,0.3-5.1,0.7-7.6,1c-0.4,0-0.8,0-1.2-0.2c-0.7-0.2-1.1-0.9-1-1.6c0-0.7,0.6-1.3,1.3-1.3
			c0.7-0.1,1.5,0,2.2,0.1c2.1,0.5,4.2,1.1,6.3,1.6C38.9,28.3,38.9,28.4,38.9,28.5z"/>
		<path class="st0" d="M44,15.8c-2-1.3-4.1-2.6-6.1-3.9c-0.4-0.3-0.7-0.6-0.9-0.9c-0.5-0.6-0.4-1.5,0.2-2c0.4-0.6,1.3-0.7,1.8-0.2
			c0.1,0,0.1,0.1,0.2,0.1c0.6,0.5,1.1,1,1.6,1.6c1.2,1.7,2.3,3.4,3.5,5.2L44,15.8z"/>
		<path class="st0" d="M55.1,48.5c0,2.5,0,5.1,0,7.7c0,0.4-0.1,0.7-0.3,1.1c-0.4,0.7-1.3,1-2,0.6c-0.5-0.3-0.9-0.8-0.8-1.4
			c0.1-0.8,0.2-1.6,0.5-2.4c0.7-1.9,1.5-3.7,2.3-5.6L55.1,48.5z"/>
		<path class="st0" d="M52.9,10.3c-1-2-2.1-4-3-6c-0.3-0.6-0.4-1.2-0.5-1.9c-0.1-0.7,0.4-1.4,1.1-1.5c0.7-0.3,1.4,0.1,1.6,0.7
			c0,0,0,0,0,0c0.3,0.9,0.5,1.8,0.7,2.7c0.2,1.9,0.2,3.9,0.3,5.8L52.9,10.3z"/>
		<path class="st0" d="M48.5,46c-0.8,2.2-1.6,4.5-2.4,6.8c-0.2,0.4-0.5,0.9-0.8,1.2c-0.4,0.6-1.2,0.8-1.9,0.4
			c-0.7-0.3-1-1.2-0.7-1.9c0,0,0,0,0,0c0.2-0.5,0.5-1,0.8-1.4c1.5-1.8,3.1-3.5,4.7-5.2L48.5,46z"/>
		<path class="st0" d="M59.8,9.8c-0.2-2.6-0.5-5.2-0.7-7.8C59,1.1,59.5,0.2,60.4,0c0.1,0,0.1,0,0.2,0c0.7-0.1,1.5,0.4,1.6,1.1
			c0,0.1,0,0.2,0,0.3c0,0.7,0,1.5-0.2,2.2c-0.6,2.1-1.3,4.2-1.9,6.2H59.8z"/>
		<path class="st0" d="M77.3,24.6c2.4-1,4.7-2.1,7.1-3.1c0.3-0.1,0.7-0.1,1-0.1c0.7,0,1.2,0.4,1.4,1.1c0.3,0.6,0,1.3-0.5,1.6
			c-0.5,0.3-1.1,0.5-1.7,0.6c-2.4,0.1-4.8,0-7.2,0L77.3,24.6z"/>
		<path class="st0" d="M76.2,21.3c1.9-1.4,3.9-2.7,5.8-4c0.5-0.3,1.1-0.5,1.7-0.6c0.7-0.2,1.4,0.2,1.5,0.9c0,0,0,0.1,0,0.1
			c0.3,0.6,0.1,1.4-0.6,1.7c0,0,0,0,0,0c-1,0.5-2.1,0.9-3.2,1.1c-1.7,0.4-3.4,0.6-5.2,0.9L76.2,21.3z"/>
		<path class="st0" d="M43.2,41.6c-1.7,2-3.4,3.9-5.1,5.8c-0.3,0.3-0.6,0.5-1,0.5c-0.6,0.2-1.2,0-1.6-0.5C35,47,35,46.3,35.4,45.8
			c0.3-0.4,0.6-0.7,1-1c2.2-1.2,4.3-2.3,6.5-3.5L43.2,41.6z"/>
		<path class="st0" d="M68.6,45.9c1.6,1.7,3.2,3.5,4.7,5.2c0.3,0.4,0.5,0.8,0.7,1.3c0.3,0.7,0,1.6-0.7,1.9c-0.6,0.4-1.5,0.2-1.9-0.4
			c-0.3-0.3-0.6-0.7-0.7-1.2c-0.8-2.2-1.6-4.4-2.4-6.7L68.6,45.9z"/>
		<path class="st0" d="M63.3,10.3c0.2-2.5,0.3-4.9,0.6-7.4C64,2.4,64.1,2,64.4,1.6c0.3-0.6,1-0.9,1.6-0.6c0.7,0.1,1.2,0.7,1.2,1.4
			c0,0.3,0,0.7-0.1,1c-1.1,2.4-2.2,4.7-3.4,7.1L63.3,10.3z"/>
		<path class="st0" d="M66.6,11.5c0.6-2.3,1.2-4.6,1.8-6.8c0.1-0.5,0.3-0.9,0.6-1.3c0.4-0.7,1.2-1,1.9-0.6c0,0,0.1,0,0.1,0
			c0.7,0.3,1,1.1,0.7,1.8c0,0,0,0,0,0c-0.2,0.6-0.5,1.1-0.8,1.7c-1.3,1.8-2.7,3.5-4.1,5.3L66.6,11.5z"/>
		<path class="st0" d="M41.2,38.7c-2.1,1.6-4.1,3.3-6.2,4.8c-0.6,0.3-1.2,0.4-1.8,0.1c-0.7-0.3-1-1.2-0.7-1.9
			c0.1-0.3,0.3-0.5,0.6-0.6c0.7-0.5,1.4-0.8,2.2-1.1c1.9-0.6,3.8-1.1,5.7-1.7L41.2,38.7z"/>
		<path class="st0" d="M75.6,38.2c2.2,0.7,4.4,1.3,6.6,2c0.6,0.2,1.1,0.5,1.5,0.9c0.6,0.4,0.7,1.3,0.3,1.9c-0.3,0.7-1.1,0.9-1.7,0.7
			c0,0,0,0,0,0c-0.6-0.2-1.1-0.5-1.7-0.8c-1.8-1.4-3.5-2.9-5.2-4.4L75.6,38.2z"/>
		<path class="st0" d="M77,35c2.5,0.3,5,0.6,7.4,1c0.4,0.1,0.9,0.3,1.2,0.6c0.6,0.4,0.8,1.2,0.5,1.8c-0.2,0.7-0.9,1.1-1.5,0.9
			c0,0,0,0,0,0c-0.7-0.1-1.5-0.4-2.1-0.7c-1.9-1-3.7-2.1-5.5-3.2L77,35z"/>
		<path class="st0" d="M77.9,28.1c2.2-0.6,4.4-1.2,6.6-1.7c0.6-0.1,1.2-0.1,1.8,0c0.8,0.1,1.3,0.7,1.2,1.5c0,0,0,0,0,0
			c0.1,0.7-0.4,1.4-1.2,1.4c-0.1,0-0.1,0-0.2,0c-1.4,0-2.9-0.2-4.3-0.4c-1.3-0.2-2.6-0.5-3.9-0.7L77.9,28.1z"/>
		<path class="st0" d="M65.3,47.3c1.3,2,2.6,4,3.8,6.1c0.2,0.4,0.4,0.8,0.4,1.3c0.3,0.7-0.1,1.5-0.8,1.8c0,0-0.1,0-0.1,0
			c-0.6,0.3-1.4,0.1-1.8-0.5c0-0.1-0.1-0.2-0.1-0.3c-0.4-0.9-0.7-1.9-0.8-2.8c-0.3-1.8-0.5-3.7-0.8-5.5L65.3,47.3z"/>
		<path class="st0" d="M51.7,47.5c-0.4,2.4-0.7,4.7-1.2,7.1c-0.1,0.5-0.3,1-0.6,1.4c-0.3,0.6-1.1,0.9-1.8,0.6
			c-0.7-0.2-1.1-0.9-1-1.6c0-0.5,0.2-0.9,0.4-1.4c1.2-2.1,2.6-4.2,3.8-6.2L51.7,47.5z"/>
		<path class="st0" d="M45.6,44c-1.2,2.1-2.4,4.2-3.6,6.3c-0.3,0.4-0.6,0.8-1.1,1.1c-0.5,0.4-1.3,0.4-1.8-0.1
			c-0.6-0.4-0.8-1.1-0.4-1.7c0,0,0,0,0-0.1c0.5-0.8,1.2-1.5,1.9-2.1c1.5-1.2,3.2-2.3,4.8-3.5L45.6,44z"/>
		<path class="st0" d="M40.3,21.7c-2.4-0.5-4.7-1-7.1-1.5c-0.4-0.1-0.8-0.3-1.2-0.6c-0.6-0.4-0.9-1.2-0.5-1.8
			c0.2-0.7,0.9-1.1,1.6-0.9c0,0,0,0,0,0c0.6,0.1,1.1,0.3,1.6,0.6c2,1.3,3.9,2.6,5.8,4L40.3,21.7z"/>
		<path class="st0" d="M39.8,35.5c-2.3,1.2-4.6,2.5-6.9,3.6c-0.5,0.2-1.2,0.2-1.7,0c-0.7-0.4-1-1.2-0.6-1.9c0.1-0.3,0.4-0.5,0.6-0.6
			c0.7-0.4,1.5-0.6,2.3-0.7c2.1-0.3,4.1-0.5,6.2-0.7L39.8,35.5z"/>
		<path class="st0" d="M77.7,31.6c2.5-0.1,5-0.3,7.5-0.4c0.6,0,1.1,0.2,1.6,0.5c0.4,0.4,0.5,0.9,0.5,1.4c-0.1,0.5-0.5,0.9-0.9,1.1
			c-0.7,0.2-1.4,0.2-2.1,0c-2.2-0.7-4.4-1.5-6.6-2.3L77.7,31.6z"/>
		<path class="st0" d="M69.7,13.3c0.9-2,1.7-4,2.7-6c0.4-0.7,0.8-1.3,1.3-1.8C74.2,5,75,5,75.5,5.5c0,0,0,0,0,0
			c0.6,0.3,0.8,1.1,0.5,1.7c-0.4,0.7-0.8,1.4-1.4,2c-1.6,1.5-3.2,2.9-4.8,4.3L69.7,13.3z"/>
		<path class="st0" d="M46.8,13.5c-1.7-1.6-3.5-3.1-5.2-4.7c-0.4-0.4-0.7-0.8-0.9-1.3c-0.4-0.7-0.2-1.5,0.5-1.9
			C41.7,5,42.5,5.1,43,5.6c0,0,0.1,0.1,0.1,0.1c0.3,0.2,0.5,0.5,0.7,0.9c1.1,2.2,2.1,4.5,3.2,6.8L46.8,13.5z"/>
		<path class="st0" d="M71.3,43.8c1.7,1.2,3.4,2.4,5,3.7c0.6,0.5,1.1,1.1,1.6,1.7c0.5,0.6,0.3,1.5-0.3,2c-0.5,0.5-1.4,0.5-1.9,0
			c0,0-0.1-0.1-0.1-0.1c-0.5-0.5-1-1-1.3-1.6c-1.1-1.8-2.1-3.7-3.1-5.5L71.3,43.8z"/>
		<path class="st0" d="M62,48.4c0.9,2.3,1.8,4.7,2.7,7c0.1,0.4,0.2,0.9,0.1,1.3c0,0.7-0.5,1.3-1.2,1.3c-0.6,0.2-1.3-0.1-1.5-0.7
			c-0.3-0.6-0.4-1.2-0.5-1.8c0-2.3,0-4.7,0-7L62,48.4z"/>
		<path class="st0" d="M49.7,11.7c-1.5-2.1-3-4.1-4.5-6.2c-0.2-0.4-0.4-0.8-0.4-1.2C44.6,3.7,45,3,45.7,2.8c0.6-0.3,1.3-0.2,1.7,0.4
			c0.4,0.6,0.8,1.3,1,2.1c0.6,2.1,1,4.2,1.5,6.3L49.7,11.7z"/>
		<path class="st0" d="M58.5,48.7c0.5,2.2,1,4.3,1.4,6.5c0.1,0.7,0.1,1.3,0,2c0,0.8-0.7,1.3-1.5,1.3c-0.1,0-0.1,0-0.2,0
			c-0.7,0-1.3-0.6-1.3-1.3c0,0,0-0.1,0-0.1c0.1-1.4,0.2-2.7,0.5-4.1c0.2-1.4,0.6-2.8,1-4.2L58.5,48.7z"/>
		<path class="st0" d="M56.4,9.7c-0.7-2.2-1.4-4.4-2-6.7c-0.1-0.5-0.2-1-0.1-1.5c0-0.8,0.6-1.5,1.4-1.5c0,0,0,0,0,0
			c0.7-0.1,1.4,0.4,1.5,1.1c0.1,0.4,0.2,0.8,0.2,1.3c-0.2,2.4-0.5,4.9-0.7,7.3L56.4,9.7z"/>
		<path class="st0" d="M39,32.1c-2.6,0.8-5.1,1.6-7.7,2.3c-0.7,0.3-1.5-0.1-1.8-0.8c0,0,0-0.1,0-0.1c-0.4-1.2,0.3-2.1,1.7-2.2
			c1.9,0,3.7,0.1,5.6,0.2c0.7,0,1.4,0.1,2.2,0.2L39,32.1z"/>
		<path class="st0" d="M73.7,41.2c2.2,1.1,4.3,2.2,6.5,3.4c0.4,0.2,0.7,0.6,1,0.9c0.6,0.6,0.5,1.6-0.1,2.1c-0.5,0.5-1.3,0.5-1.9,0.1
			c-0.8-0.6-1.5-1.2-2.2-1.9c-1.2-1.4-2.3-2.9-3.5-4.4L73.7,41.2z"/>
		<path class="st0" d="M42.7,31.5l-3,0.4c0-0.1,0-0.2,0-0.3l2.9-0.5L42.7,31.5z"/>
		<path class="st0" d="M40.2,24.9l2.9,0.7L43,25.9l-2.8-0.7L40.2,24.9z"/>
		<path class="st0" d="M45.1,20.7L42.6,19l0.2-0.3l2.5,1.6L45.1,20.7z"/>
		<path class="st0" d="M51.3,15L50,12.3l0.2-0.1l1.3,2.6L51.3,15z"/>
		<path class="st0" d="M46.1,43l1.8-2.1l0.3,0.2l-1.8,2.1L46.1,43z"/>
		<path class="st0" d="M63.4,11.1L62.7,14l-0.4-0.1l0.9-2.9L63.4,11.1z"/>
		<path class="st0" d="M74.1,28.2h2.8c0,0.1,0,0.1,0,0.2l-2.8,0.2C74.1,28.5,74.1,28.4,74.1,28.2z"/>
		<path class="st0" d="M75.9,35l-2.7-0.8l0.1-0.4l2.7,0.8L75.9,35z"/>
		<path class="st0" d="M74.8,38.1l-2.7-1.4l0.2-0.3l2.6,1.4L74.8,38.1z"/>
		<path class="st0" d="M75.5,22l-2.7,1.2l-0.2-0.3l2.7-1.2L75.5,22z"/>
		<path class="st0" d="M55.7,44.8l-0.6,2.9l-0.3,0l0.5-2.9L55.7,44.8z"/>
		<path class="st0" d="M58.5,45v3h-0.2v-3H58.5z"/>
		<path class="st0" d="M64.9,14.9l1.3-2.6l0.3,0.1l-1.3,2.7L64.9,14.9z"/>
		<path class="st0" d="M56.8,10.5l0.3,2.9h-0.4c-0.1-1-0.2-1.9-0.2-2.9L56.8,10.5z"/>
		<path class="st0" d="M43.4,34.2l-2.8,0.9l-0.1-0.3l2.7-1L43.4,34.2z"/>
		<path class="st0" d="M44.7,36.8L42,38.2l-0.2-0.3l2.7-1.5L44.7,36.8z"/>
		<path class="st0" d="M73.7,25.4l2.9-0.6l0.1,0.3l-2.9,0.8L73.7,25.4z"/>
		<path class="st0" d="M51.7,46.4l1-2.7l0.3,0.1l-1,2.6L51.7,46.4z"/>
		<path class="st0" d="M47.5,14l1.7,2.3l-0.3,0.2l-1.7-2.3L47.5,14z"/>
		<path class="st0" d="M68.9,40.9l1.8,2.1l-0.2,0.2l-1.9-2L68.9,40.9z"/>
		<path class="st0" d="M44.9,16.2l2.1,1.9l-0.3,0.3l-2-2L44.9,16.2z"/>
		<path class="st0" d="M50.5,42.8L49,45.3l-0.3-0.2l1.5-2.5L50.5,42.8z"/>
		<path class="st0" d="M71.9,16.5L70,18.5l-0.4-0.4l2-1.9L71.9,16.5z"/>
		<path class="st0" d="M64.8,46.6l-1-2.6l0.3-0.1l1,2.7L64.8,46.6z"/>
		<path class="st0" d="M60.2,10.7l-0.3,2.7h-0.3c0.1-0.9,0.2-1.8,0.2-2.7L60.2,10.7z"/>
		<path class="st0" d="M61.5,47.4L61,44.7l0.3-0.1l0.5,2.7L61.5,47.4z"/>
		<path class="st0" d="M67.4,16.4l1.6-2.3l0.3,0.2l-1.6,2.3L67.4,16.4z"/>
		<path class="st0" d="M43.8,23.2l-2.5-1.1l0.1-0.3l2.5,1L43.8,23.2z"/>
		<path class="st0" d="M70.9,38.8l2.1,1.7l-0.2,0.2l-2.1-1.7L70.9,38.8z"/>
		<path class="st0" d="M74,31.1l2.8,0.4v0.3L74,31.4V31.1z"/>
		<path class="st0" d="M67.7,45.1l-1.4-2.3l0.3-0.2L68,45L67.7,45.1z"/>
		<path class="st0" d="M73.9,19l-2.3,1.6l-0.2-0.3l2.3-1.5L73.9,19z"/>
		<path class="st0" d="M46.2,39.2L43.9,41l-0.2-0.2l2.2-1.8L46.2,39.2z"/>
		<path class="st0" d="M53.9,13.9l-0.7-2.6l0.3-0.1l0.8,2.6L53.9,13.9z"/>
	</g>
</g>
</svg>
