<svg xmlns="http://www.w3.org/2000/svg" viewBox="0 0 116.89 127.86"><defs><style>.cls-1,.cls-2{fill:#262626;}.cls-2{fill-rule:evenodd;}</style></defs><title>logo-regalar</title><g id="Capa_2" data-name="Capa 2"><g id="Capa_1-2" data-name="Capa 1"><path class="cls-1" d="M19.71,93.8a3.82,3.82,0,0,1-2.52.74A2.67,2.67,0,0,1,15,93.48a3.93,3.93,0,0,1-.87-2.57,7.34,7.34,0,0,1,.12-1.07l1.1-5.19a5.21,5.21,0,0,0,.12-1.11q0-2.63-3.59-2.63H8.43L6,93H9.4l-.09.89H0V93H2.62L7.21,69.19H4.69V68.3h8.73a8.22,8.22,0,0,1,3.86.83,5.85,5.85,0,0,1,2.39,2.21,5.75,5.75,0,0,1,.81,3,6,6,0,0,1-.72,2.84,6.21,6.21,0,0,1-2.11,2.28,7.53,7.53,0,0,1-3.38,1.15v.08a8.37,8.37,0,0,1,3.27,1.06,2.59,2.59,0,0,1,1.2,2.35,4.06,4.06,0,0,1-.09.82l-1.4,6.63a3.89,3.89,0,0,0-.12,1c0,.94.32,1.41,1,1.41q1.61,0,2.58-2.45h.4A4.81,4.81,0,0,1,19.71,93.8Zm-4-15.42a6.75,6.75,0,0,0,1.1-3.85,6.65,6.65,0,0,0-1-3.74,3.33,3.33,0,0,0-2.94-1.59H10.53L8.49,80H12.6A3.49,3.49,0,0,0,15.67,78.38Z"/><path class="cls-1" d="M32.77,93.28a7.43,7.43,0,0,1-3.83,1,9,9,0,0,1-3.88-.89,7.62,7.62,0,0,1-3-2.58,6.74,6.74,0,0,1-1.17-3.95,10.12,10.12,0,0,1,1.45-5.47A9.77,9.77,0,0,1,26,77.88a9.44,9.44,0,0,1,4.52-1.2,6.25,6.25,0,0,1,3.74,1.11A3.69,3.69,0,0,1,35.78,81a5.59,5.59,0,0,1-.91,3.41,5.21,5.21,0,0,1-3,1.76,24.75,24.75,0,0,1-5.84.54q-1.34,0-2.07,0c0,.49-.06.85-.06,1.08a6.05,6.05,0,0,0,1.61,4.56,5.55,5.55,0,0,0,4,1.56,5.48,5.48,0,0,0,2.92-.89A8.07,8.07,0,0,0,35,90.31h.3A5.84,5.84,0,0,1,32.77,93.28ZM25.1,86.13a13.38,13.38,0,0,0,4.4-.59,4.4,4.4,0,0,0,2.42-1.87,6.66,6.66,0,0,0,.76-3.43,3,3,0,0,0-.82-2.3,2.7,2.7,0,0,0-1.92-.78,3.62,3.62,0,0,0-2.4,1.17,10.36,10.36,0,0,0-2.21,3.21A16.08,16.08,0,0,0,24,86.09Z"/><path class="cls-1" d="M49.07,97.57a11.82,11.82,0,0,1-3.77,3.59,8.23,8.23,0,0,1-4.09,1.21A4,4,0,0,1,37,98.12a2.88,2.88,0,0,1,.61-1.87,1.71,1.71,0,0,1,1.31-.68,1.29,1.29,0,0,1,1,.48,1.94,1.94,0,0,1,.42,1.33,1.58,1.58,0,0,1-.2.83,4.34,4.34,0,0,1-.59.73,4.09,4.09,0,0,0-.59.73,1.5,1.5,0,0,0-.2.8,1.19,1.19,0,0,0,.78,1,3.6,3.6,0,0,0,1.7.41,5.14,5.14,0,0,0,4.41-2.77,24.65,24.65,0,0,0,2.85-8l.06-.38a4.38,4.38,0,0,1-1.77,1.67,6.34,6.34,0,0,1-2.75.51,6.16,6.16,0,0,1-3.39-.94,6.3,6.3,0,0,1-2.26-2.5,7.32,7.32,0,0,1-.8-3.37,11,11,0,0,1,1.17-5.24,8.49,8.49,0,0,1,3-3.35,7.29,7.29,0,0,1,3.87-1.14,6.06,6.06,0,0,1,3,.78,5.43,5.43,0,0,1,2.16,2.28l.17-.75.36-1.84h5.11v.48H54.08L51.34,91.86A14.41,14.41,0,0,1,49.07,97.57Zm-.26-20a4.62,4.62,0,0,0-2.49-.8,4.19,4.19,0,0,0-2.9,1.29,9,9,0,0,0-2.18,3.47,13.46,13.46,0,0,0-.81,4.73,7.9,7.9,0,0,0,.66,3.35,5.16,5.16,0,0,0,1.72,2.14A3.88,3.88,0,0,0,45,92.5a3.61,3.61,0,0,0,2.12-.71,5,5,0,0,0,1.62-2l2-9.83A5.43,5.43,0,0,0,48.8,77.58Z"/><path class="cls-1" d="M71.07,93.09c0,.52.18.78.55.78s.81-.35,1.34-1a8.33,8.33,0,0,0,1.25-2.37h.24A8.92,8.92,0,0,1,73.17,93a2.34,2.34,0,0,1-1.83,1.19q-2.46,0-2.83-3.67a6.31,6.31,0,0,1-2.12,2.89,6.3,6.3,0,0,1-3.54.85,6.73,6.73,0,0,1-3.7-1,6.86,6.86,0,0,1-2.47-2.72,8,8,0,0,1-.87-3.67,12,12,0,0,1,1.28-5.71,9.24,9.24,0,0,1,3.3-3.65,8,8,0,0,1,4.21-1.24,6.54,6.54,0,0,1,3.38.89,6,6,0,0,1,2.37,2.59l1.7-2.85h2L71.16,92.24A4.73,4.73,0,0,0,71.07,93.09Zm-3-15.43a5.08,5.08,0,0,0-2.77-.91,4.57,4.57,0,0,0-3.17,1.41,9.79,9.79,0,0,0-2.37,3.78,14.65,14.65,0,0,0-.88,5.15,8.61,8.61,0,0,0,.71,3.65,5.61,5.61,0,0,0,1.87,2.33,4.22,4.22,0,0,0,2.44.8,4.13,4.13,0,0,0,3-1.32,6.92,6.92,0,0,0,1.8-3.8l1.58-8.45A5.85,5.85,0,0,0,68.09,77.66Z"/><path class="cls-1" d="M79.47,68.3h5.14L79.87,93.46h1.7v.44H74.81v-.44h1.83l4.87-24.72h-2Z"/><path class="cls-1" d="M98,93.09c0,.52.18.78.55.78s.81-.35,1.34-1a8.31,8.31,0,0,0,1.25-2.37h.24A8.9,8.9,0,0,1,100.1,93a2.34,2.34,0,0,1-1.83,1.19q-2.47,0-2.83-3.67a5.25,5.25,0,0,1-5.66,3.74,6.73,6.73,0,0,1-3.7-1,6.86,6.86,0,0,1-2.47-2.72,8,8,0,0,1-.87-3.67A12,12,0,0,1,84,81.16a9.25,9.25,0,0,1,3.3-3.65,8,8,0,0,1,4.21-1.24,6.55,6.55,0,0,1,3.38.89,6,6,0,0,1,2.37,2.59L99,76.9h2L98.09,92.24A4.75,4.75,0,0,0,98,93.09ZM95,77.66a5.08,5.08,0,0,0-2.77-.91,4.57,4.57,0,0,0-3.16,1.41,9.81,9.81,0,0,0-2.37,3.78,14.65,14.65,0,0,0-.88,5.15,8.6,8.6,0,0,0,.72,3.65,5.62,5.62,0,0,0,1.87,2.33,4.22,4.22,0,0,0,2.44.8,4.13,4.13,0,0,0,3-1.32,6.93,6.93,0,0,0,1.8-3.8l1.58-8.45A5.85,5.85,0,0,0,95,77.66Z"/><path class="cls-1" d="M111.37,77.32a3.77,3.77,0,0,1,2.51-1.06A2.59,2.59,0,0,1,116,77.42a5.48,5.48,0,0,1,.85,3.3,3.71,3.71,0,0,1-.5,2.17,1.61,1.61,0,0,1-1.38.8,1.94,1.94,0,0,1-1.48-.59,2,2,0,0,1-.56-1.41,2,2,0,0,1,.88-1.74,2.43,2.43,0,0,0,.91-1.93,1.42,1.42,0,0,0-.26-.87.87.87,0,0,0-.75-.35,3.43,3.43,0,0,0-2.48,1.3,8.58,8.58,0,0,0-1.84,3.56l-2.25,11.75h1.74v.41h-6.63v-.41h1.79l3-16h-1.8V76.9h4.44l-.46,3.41A9.07,9.07,0,0,1,111.37,77.32Z"/><circle class="cls-1" cx="91.48" cy="124.38" r="2.48"/><path class="cls-1" d="M20.49,106.89q-.12-4.16-4.16-4l-5.74.16L9,113.37l3.36-.1q2.57-.07,3.43-3.91h.5l-1,9.3h-.38q-.13-4.59-2.79-4.52l-3.3.09-2,11.94,2.8-.08,0,.86-7.87.23,0-.9,2-.06L7.41,103.1l-2.47.07,0-.86L22,101.82,21,108h-.5Q20.5,107.18,20.49,106.89Z"/><path class="cls-1" d="M24.51,102.08h5l-4.6,24.38h1.65v.43H20v-.43h1.77l4.72-23.95h-2Z"/><path class="cls-1" d="M30.7,114.09a10.74,10.74,0,0,1,3.82-3,10.37,10.37,0,0,1,4.41-1,7.66,7.66,0,0,1,3.45.79A6.36,6.36,0,0,1,45,113.19a6.88,6.88,0,0,1,1,3.75,11.7,11.7,0,0,1-.18,1.94,11.36,11.36,0,0,1-2.17,4.88,10.58,10.58,0,0,1-3.73,3.07,9.69,9.69,0,0,1-4.25,1,8.33,8.33,0,0,1-3.61-.79,6.3,6.3,0,0,1-2.67-2.37,7,7,0,0,1-1-3.81,11.9,11.9,0,0,1,.21-2A10.6,10.6,0,0,1,30.7,114.09Zm4.82-2.57a9.29,9.29,0,0,0-2.49,3,14.06,14.06,0,0,0-1.42,4,18.93,18.93,0,0,0-.38,3.59q0,5.46,4.57,5.46a4.72,4.72,0,0,0,3.09-1.26,10.87,10.87,0,0,0,2.54-3.29,15.11,15.11,0,0,0,1.47-4.25,16.54,16.54,0,0,0,.35-3.34q0-5.1-4.45-5.1A5.27,5.27,0,0,0,35.52,111.52Z"/><path class="cls-1" d="M53.56,110.82a3.65,3.65,0,0,1,2.43-1,2.51,2.51,0,0,1,2.09,1.11,5.31,5.31,0,0,1,.83,3.19,3.6,3.6,0,0,1-.49,2.1,1.55,1.55,0,0,1-1.34.77,1.88,1.88,0,0,1-1.43-.57,1.91,1.91,0,0,1-.55-1.36,2,2,0,0,1,.86-1.69,2.36,2.36,0,0,0,.88-1.87,1.38,1.38,0,0,0-.25-.84.84.84,0,0,0-.72-.34,3.32,3.32,0,0,0-2.4,1.26A8.32,8.32,0,0,0,51.69,115l-2.18,11.38h1.68v.39H44.76v-.39H46.5l2.89-15.55H47.65v-.43H52l-.44,3.3A8.82,8.82,0,0,1,53.56,110.82Z"/><path class="cls-1" d="M71,126.28a7.18,7.18,0,0,1-3.71,1,8.65,8.65,0,0,1-3.76-.86,7.39,7.39,0,0,1-2.95-2.49,6.53,6.53,0,0,1-1.13-3.82,9.8,9.8,0,0,1,1.4-5.3,9.46,9.46,0,0,1,3.57-3.41,9.13,9.13,0,0,1,4.38-1.17,6.07,6.07,0,0,1,3.63,1.08,3.57,3.57,0,0,1,1.5,3.09,5.43,5.43,0,0,1-.89,3.3,5,5,0,0,1-2.92,1.7,23.94,23.94,0,0,1-5.66.52q-1.3,0-2,0c0,.48-.06.83-.06,1A5.86,5.86,0,0,0,64,125.31a5.39,5.39,0,0,0,3.89,1.51,5.31,5.31,0,0,0,2.83-.86,7.82,7.82,0,0,0,2.45-2.55h.3A5.67,5.67,0,0,1,71,126.28Zm-7.43-6.93a13,13,0,0,0,4.26-.57A4.28,4.28,0,0,0,70.17,117a6.47,6.47,0,0,0,.74-3.32,2.92,2.92,0,0,0-.8-2.23,2.61,2.61,0,0,0-1.86-.75,3.51,3.51,0,0,0-2.33,1.13,10.08,10.08,0,0,0-2.14,3.11,15.56,15.56,0,0,0-1.28,4.42Z"/><path class="cls-1" d="M86.59,113a2,2,0,0,0,.86-1.18.73.73,0,0,0-.12-.66,1.91,1.91,0,0,0-.87-.72,3.86,3.86,0,0,0-1.67-.31,4.31,4.31,0,0,0-3.07,1,3.29,3.29,0,0,0-1.09,2.5,1.76,1.76,0,0,0,.52,1.33,12.61,12.61,0,0,0,1.69,1.29,11.67,11.67,0,0,1,1.51,1q3.71,2.91,3.71,5.64a3.29,3.29,0,0,1-.93,2.3,6.2,6.2,0,0,1-2.67,1.58,13.25,13.25,0,0,1-4.13.57,6.74,6.74,0,0,1-2.95-.66,6.22,6.22,0,0,1-2.23-1.72,3.47,3.47,0,0,1-.84-2.17,2.5,2.5,0,0,1,.75-1.83,2.22,2.22,0,0,1,1.58-.75,2.08,2.08,0,0,1,1.36.48,1.5,1.5,0,0,1,.59,1.2,1.33,1.33,0,0,1-.16.72,1.94,1.94,0,0,1-.52.5,3.91,3.91,0,0,0-1.15,1.62,1,1,0,0,0,.43,1.08,4.8,4.8,0,0,0,1.58.83,5.69,5.69,0,0,0,1.77.32,5.51,5.51,0,0,0,3.23-.79,2.44,2.44,0,0,0,1.11-2.08,4,4,0,0,0-.53-2,6.51,6.51,0,0,0-1.3-1.6q-.77-.68-2.06-1.61a17.74,17.74,0,0,1-2.68-2.26,3.29,3.29,0,0,1-.88-2.3,6,6,0,0,1,.12-.86,4.1,4.1,0,0,1,2.18-2.66,9.4,9.4,0,0,1,4.69-1,6.3,6.3,0,0,1,2.85.61,4.63,4.63,0,0,1,1.86,1.58,3.57,3.57,0,0,1,.63,2,2.23,2.23,0,0,1-.72,1.78,2.47,2.47,0,0,1-1.67.63,1.93,1.93,0,0,1-1.24-.39,1.33,1.33,0,0,1-.5-1.11,2.2,2.2,0,0,1,1-1.79Z"/><path class="cls-1" d="M104.88,126.71a5.75,5.75,0,0,1-2.9.75,7.89,7.89,0,0,1-5.41-1.81,6.65,6.65,0,0,1-2-5.19,13.84,13.84,0,0,1,1-5.1,9.1,9.1,0,0,1,3-4,8,8,0,0,1,5-1.54,5.53,5.53,0,0,1,3.52,1.06A3.77,3.77,0,0,1,108.4,114q0,2.33-1.74,2.33a1.24,1.24,0,0,1-.87-.31,1.17,1.17,0,0,1-.34-.92,1.47,1.47,0,0,1,.38-1.09,1.37,1.37,0,0,1,1-.38,1.44,1.44,0,0,1,1,.43,3.52,3.52,0,0,0-.57-2,3.83,3.83,0,0,0-1.4-1.27,3.53,3.53,0,0,0-1.65-.43,4.59,4.59,0,0,0-3.52,1.71,11.71,11.71,0,0,0-2.35,4.29,16.71,16.71,0,0,0-.82,5.1,7.12,7.12,0,0,0,.6,3.05,4.57,4.57,0,0,0,1.62,2,4.23,4.23,0,0,0,2.23.7,5.27,5.27,0,0,0,2.57-.72,8.29,8.29,0,0,0,2.42-2.12h.5A9.7,9.7,0,0,1,104.88,126.71Z"/><path class="cls-1" d="M111.91,102.08h5l-4.6,24.38h1.65v.43H107.4v-.43h1.77l4.72-23.95h-2Z"/><path class="cls-2" d="M50.54,42.36c-.43-1.33-.8-1.6-2.24-1.67a1.79,1.79,0,0,0-1.87-1.93c.07-1.32-.24-1.79-1.52-2.33A1.84,1.84,0,0,0,43.81,34c.53-1.32.45-1.7-.4-2.53a9.82,9.82,0,0,0,.16-2.07c-.08-.59-.49-.88-1.24-.77a15.77,15.77,0,0,1-2.66,0c0-.08,0-.17,0-.26.83,0,1.65-.05,2.47,0,.48,0,1,.34,1.29-.23a5.11,5.11,0,0,0,.28-1.67c0-.18-.18-.37-.28-.56,1.15-1,1.27-1.41.83-2.57a4.8,4.8,0,0,0,1.1-1,5.55,5.55,0,0,0,.36-1.56,1.8,1.8,0,0,0,1.51-2.14,1.78,1.78,0,0,0,2.05-1.81,1.83,1.83,0,0,0,2.36-1.36c1.43.29,1.86.12,2.59-1A1.82,1.82,0,0,0,56.85,14a5.27,5.27,0,0,0,1.43.43A5.42,5.42,0,0,0,59.76,14c.88.89,1.28,1,2.59.41.93,1.16,1.34,1.31,2.57.89a1.81,1.81,0,0,0,2.37,1.38c.2,1.16.75,1.92,2,1.81.15,1.44.52,1.88,1.8,2.2a1.79,1.79,0,0,0,1.32,2.39,1.8,1.8,0,0,0,.82,2.61c-.66,1.23-.58,1.84.3,2.64A5,5,0,0,0,73,29.8a4.59,4.59,0,0,0,.43,1.46,1.8,1.8,0,0,0-.54,2.58c-1.18.77-1.35,1.17-1.09,2.53-1.25.51-1.47.85-1.48,2.3a1.81,1.81,0,0,0-1.86,2c-1.47.08-1.9.39-2.23,1.64-1.36-.24-1.89,0-2.48,1.24a1.78,1.78,0,0,0-2.61.68c-1.39-.7-1.75-.66-2.73.29-1.14-.92-1.57-1-2.74-.27-1-1.08-1.4-1.19-2.64-.69C52.52,42.53,51.8,41.89,50.54,42.36Zm7.79-1.08A11.94,11.94,0,0,0,70.24,29.19a11.89,11.89,0,1,0-23.78,0A11.94,11.94,0,0,0,58.33,41.28Z"/><path class="cls-2" d="M72.34,15.43C73.69,13.5,75,11.55,76.4,9.63a4.18,4.18,0,0,1,1-.91,1.37,1.37,0,0,1,2,.13,1.41,1.41,0,0,1,.12,2,4.42,4.42,0,0,1-1,1c-1.95,1.28-3.92,2.52-5.88,3.78Z"/><path class="cls-2" d="M39.36,24.82c-2.56,0-5,0-7.38,0a3.44,3.44,0,0,1-1.31-.36,1.42,1.42,0,0,1-.86-1.73,1.32,1.32,0,0,1,1.54-1.13,12.38,12.38,0,0,1,2.85.8C35.91,23.12,37.57,24,39.36,24.82Z"/><path class="cls-2" d="M74.44,18.25C76.23,16.5,78,14.74,79.83,13a3.2,3.2,0,0,1,1-.61,1.38,1.38,0,0,1,1.82.59c.45.72.49,1.38-.2,1.88a16.56,16.56,0,0,1-3.13,1.79c-1.55.67-3.17,1.18-4.76,1.76Z"/><path class="cls-2" d="M41.95,18.53c-2-.77-4-1.51-6-2.33a7,7,0,0,1-1.71-1.07,1.43,1.43,0,0,1-.29-2.08,1.35,1.35,0,0,1,2-.45,7.65,7.65,0,0,1,1.71,1.21c1.52,1.49,3,3,4.46,4.57Z"/><path class="cls-2" d="M38.88,28.54c-2.53.34-5.06.69-7.59,1a3.1,3.1,0,0,1-1.19-.17,1.33,1.33,0,0,1-1-1.56,1.31,1.31,0,0,1,1.27-1.33,7.28,7.28,0,0,1,2.17.12c2.12.49,4.22,1.07,6.32,1.62C38.89,28.33,38.88,28.44,38.88,28.54Z"/><path class="cls-2" d="M44.05,15.81c-2-1.29-4.08-2.58-6.1-3.9a3.53,3.53,0,0,1-.89-.93,1.43,1.43,0,0,1,.15-2,1.31,1.31,0,0,1,2-.09,8,8,0,0,1,1.58,1.6c1.2,1.69,2.32,3.43,3.47,5.16Z"/><path class="cls-2" d="M55.1,48.47c0,2.55,0,5.11,0,7.66a2.59,2.59,0,0,1-.33,1.07,1.49,1.49,0,0,1-2.81-.8A8.85,8.85,0,0,1,52.46,54c.72-1.88,1.53-3.73,2.3-5.59Z"/><path class="cls-2" d="M52.92,10.32c-1-2-2.07-4-3-6a5.52,5.52,0,0,1-.47-1.86A1.29,1.29,0,0,1,50.54,1a1.27,1.27,0,0,1,1.66.77,11.67,11.67,0,0,1,.65,2.73c.17,1.92.22,3.86.32,5.79Z"/><path class="cls-2" d="M48.49,46c-.79,2.25-1.56,4.51-2.37,6.76a4.28,4.28,0,0,1-.78,1.22,1.41,1.41,0,0,1-1.87.41,1.43,1.43,0,0,1-.69-1.92,4.83,4.83,0,0,1,.8-1.4c1.55-1.75,3.14-3.47,4.71-5.2Z"/><path class="cls-2" d="M59.83,9.77c-.23-2.61-.51-5.22-.66-7.84A1.6,1.6,0,0,1,60.6,0a1.38,1.38,0,0,1,1.63,1.37A7.24,7.24,0,0,1,62,3.54c-.6,2.09-1.28,4.15-1.94,6.23Z"/><path class="cls-2" d="M77.3,24.59c2.37-1,4.74-2.08,7.13-3.1a2.58,2.58,0,0,1,1-.09A1.35,1.35,0,0,1,86.8,22.5a1.27,1.27,0,0,1-.53,1.62,4,4,0,0,1-1.74.57c-2.39.06-4.77,0-7.16,0Z"/><path class="cls-2" d="M76.2,21.33c1.94-1.35,3.87-2.72,5.84-4a4.72,4.72,0,0,1,1.65-.58,1.26,1.26,0,0,1,1.54,1,1.29,1.29,0,0,1-.61,1.74,17.55,17.55,0,0,1-3.17,1.13c-1.7.39-3.44.62-5.16.92Z"/><path class="cls-2" d="M43.2,41.58c-1.71,2-3.4,3.92-5.14,5.85a2.31,2.31,0,0,1-1,.55,1.34,1.34,0,0,1-1.57-.52,1.27,1.27,0,0,1-.11-1.7,3.68,3.68,0,0,1,1-1c2.16-1.18,4.34-2.32,6.51-3.46Z"/><path class="cls-2" d="M68.59,45.89c1.57,1.74,3.16,3.47,4.7,5.22A4.19,4.19,0,0,1,74,52.38a1.46,1.46,0,0,1-.7,1.93,1.4,1.4,0,0,1-1.88-.42,4.16,4.16,0,0,1-.73-1.16c-.82-2.21-1.6-4.44-2.4-6.67Z"/><path class="cls-2" d="M63.31,10.32c.18-2.47.35-4.93.57-7.4a3.69,3.69,0,0,1,.51-1.35A1.27,1.27,0,0,1,66,.92a1.35,1.35,0,0,1,1.16,1.44,2.62,2.62,0,0,1-.13,1c-1.11,2.38-2.25,4.74-3.37,7.11Z"/><path class="cls-2" d="M66.62,11.48c.59-2.28,1.16-4.58,1.78-6.85A4.33,4.33,0,0,1,69,3.34a1.42,1.42,0,0,1,2-.55,1.4,1.4,0,0,1,.71,1.85,6.28,6.28,0,0,1-.81,1.66c-1.33,1.79-2.71,3.54-4.06,5.31Z"/><path class="cls-2" d="M41.21,38.68c-2.06,1.63-4.08,3.3-6.2,4.85a2.15,2.15,0,0,1-1.81.13,1.42,1.42,0,0,1-.13-2.52,8.6,8.6,0,0,1,2.24-1.08c1.89-.61,3.81-1.11,5.72-1.66Z"/><path class="cls-2" d="M75.62,38.25c2.22.66,4.44,1.3,6.64,2a5,5,0,0,1,1.53.88A1.37,1.37,0,0,1,84.08,43a1.3,1.3,0,0,1-1.72.65,6.34,6.34,0,0,1-1.65-.84c-1.76-1.42-3.47-2.91-5.21-4.37Z"/><path class="cls-2" d="M77,35c2.48.32,5,.62,7.43,1a3.05,3.05,0,0,1,1.23.57,1.36,1.36,0,0,1,.46,1.79,1.25,1.25,0,0,1-1.54.87,8.59,8.59,0,0,1-2.13-.71c-1.86-1-3.68-2.13-5.51-3.2Z"/><path class="cls-2" d="M77.9,28.1c2.21-.57,4.42-1.17,6.64-1.7a4.74,4.74,0,0,1,1.76,0,1.37,1.37,0,0,1,1.24,1.53,1.31,1.31,0,0,1-1.32,1.45A35.15,35.15,0,0,1,81.89,29c-1.33-.17-2.63-.49-3.95-.74Z"/><path class="cls-2" d="M65.33,47.35c1.27,2,2.56,4,3.8,6.08a4.31,4.31,0,0,1,.44,1.29,1.38,1.38,0,0,1-.94,1.8,1.29,1.29,0,0,1-1.86-.76,13,13,0,0,1-.85-2.85c-.32-1.82-.52-3.66-.77-5.48Z"/><path class="cls-2" d="M51.66,47.52c-.38,2.36-.73,4.73-1.15,7.09A4.34,4.34,0,0,1,49.9,56a1.36,1.36,0,0,1-1.76.59,1.32,1.32,0,0,1-1-1.56,3.85,3.85,0,0,1,.41-1.38c1.25-2.1,2.56-4.16,3.84-6.24Z"/><path class="cls-2" d="M45.63,44c-1.2,2.09-2.38,4.2-3.61,6.27a3.7,3.7,0,0,1-1.08,1.07,1.34,1.34,0,0,1-1.77-.12,1.26,1.26,0,0,1-.37-1.79,10.25,10.25,0,0,1,1.88-2.08c1.53-1.22,3.16-2.34,4.75-3.5Z"/><path class="cls-2" d="M40.28,21.68c-2.36-.5-4.72-1-7.08-1.53A4,4,0,0,1,32,19.57a1.37,1.37,0,0,1-.55-1.83,1.28,1.28,0,0,1,1.6-.89,5.07,5.07,0,0,1,1.58.57c2,1.29,3.86,2.63,5.78,4Z"/><path class="cls-2" d="M39.82,35.48c-2.29,1.22-4.57,2.48-6.89,3.64a2.27,2.27,0,0,1-1.7,0,1.43,1.43,0,0,1,0-2.56,6.88,6.88,0,0,1,2.29-.72c2.06-.28,4.13-.46,6.2-.67Z"/><path class="cls-2" d="M77.7,31.59c2.5-.14,5-.31,7.5-.4a2.46,2.46,0,0,1,1.56.5,1.75,1.75,0,0,1,.5,1.39,1.63,1.63,0,0,1-.94,1.12,3.81,3.81,0,0,1-2.05,0c-2.22-.71-4.4-1.53-6.59-2.31Z"/><path class="cls-2" d="M69.67,13.27c.88-2,1.71-4,2.65-6a7.09,7.09,0,0,1,1.35-1.79,1.28,1.28,0,0,1,1.83,0A1.29,1.29,0,0,1,76,7.19a7.59,7.59,0,0,1-1.41,1.95C73,10.6,71.4,12,69.81,13.4Z"/><path class="cls-2" d="M46.75,13.48c-1.73-1.57-3.48-3.12-5.18-4.72a4.69,4.69,0,0,1-.91-1.32,1.4,1.4,0,0,1,.45-1.92,1.36,1.36,0,0,1,2,.19,3.23,3.23,0,0,1,.72.87c1.08,2.25,2.12,4.51,3.17,6.76Z"/><path class="cls-2" d="M71.32,43.8c1.67,1.23,3.36,2.42,5,3.7a8.09,8.09,0,0,1,1.58,1.71,1.44,1.44,0,0,1-.34,2,1.36,1.36,0,0,1-2-.13,7.73,7.73,0,0,1-1.34-1.6c-1.07-1.83-2.07-3.7-3.09-5.55Z"/><path class="cls-2" d="M62,48.36c.89,2.33,1.8,4.65,2.67,7a3.51,3.51,0,0,1,.11,1.28,1.31,1.31,0,0,1-1.2,1.31,1.23,1.23,0,0,1-1.55-.7,5.42,5.42,0,0,1-.46-1.78c-.05-2.34,0-4.69,0-7Z"/><path class="cls-2" d="M49.69,11.73c-1.51-2.06-3-4.11-4.53-6.18a3,3,0,0,1-.43-1.21,1.41,1.41,0,0,1,.94-1.54,1.22,1.22,0,0,1,1.66.38,7.08,7.08,0,0,1,1,2.08c.57,2.1,1,4.22,1.54,6.34Z"/><path class="cls-2" d="M58.49,48.69c.46,2.15,1,4.3,1.37,6.46a6,6,0,0,1,0,2,1.38,1.38,0,0,1-1.66,1.27A1.31,1.31,0,0,1,56.9,57a30.31,30.31,0,0,1,.46-4.07c.25-1.42.64-2.82,1-4.23Z"/><path class="cls-2" d="M56.36,9.66C55.7,7.44,55,5.24,54.39,3a5,5,0,0,1-.11-1.52A1.45,1.45,0,0,1,55.7,0a1.34,1.34,0,0,1,1.5,1.06,3.43,3.43,0,0,1,.18,1.27c-.21,2.43-.46,4.86-.7,7.29Z"/><path class="cls-2" d="M39,32.09c-2.56.79-5.1,1.64-7.68,2.33a1.38,1.38,0,0,1-1.84-.9c-.41-1.17.28-2.15,1.71-2.17,1.86,0,3.71.12,5.57.22.72,0,1.44.13,2.16.2Z"/><path class="cls-2" d="M73.72,41.18c2.16,1.11,4.34,2.21,6.48,3.36a3.6,3.6,0,0,1,1,.93,1.5,1.5,0,0,1-2,2.22,13.31,13.31,0,0,1-2.15-1.94c-1.22-1.42-2.35-2.92-3.52-4.39Z"/><path class="cls-2" d="M42.72,31.53l-3,.36c0-.1,0-.19,0-.29l2.93-.51Z"/><path class="cls-2" d="M40.21,24.88l2.87.68L43,25.9l-2.83-.68Z"/><path class="cls-2" d="M45.08,20.69,42.64,19l.17-.26,2.52,1.6Z"/><path class="cls-2" d="M51.27,15,50,12.34l.25-.12,1.35,2.64Z"/><path class="cls-2" d="M46.08,43l1.81-2.1.27.23-1.79,2.09Z"/><path class="cls-2" d="M63.44,11.1,62.66,14l-.37-.1L63.15,11Z"/><path class="cls-2" d="M74.12,28.24h2.82c0,.06,0,.12,0,.19l-2.82.19C74.13,28.49,74.13,28.37,74.12,28.24Z"/><path class="cls-2" d="M75.94,35l-2.67-.81.11-.36,2.65.85Z"/><path class="cls-2" d="M74.79,38.14l-2.67-1.37.17-.33,2.63,1.42Z"/><path class="cls-2" d="M75.49,22l-2.67,1.17-.15-.33,2.68-1.16Z"/><path class="cls-2" d="M55.74,44.79l-.57,2.88-.28-.05.45-2.91Z"/><path class="cls-2" d="M58.54,45v3H58.3v-3Z"/><path class="cls-2" d="M64.94,14.9l1.32-2.64.28.14-1.26,2.67Z"/><path class="cls-2" d="M56.76,10.48l.34,2.92-.39,0q-.12-1.45-.23-2.9Z"/><path class="cls-2" d="M43.43,34.25l-2.77.88-.1-.29,2.74-1Z"/><path class="cls-2" d="M44.66,36.78,42,38.21l-.15-.28,2.67-1.48Z"/><path class="cls-2" d="M73.74,25.39l2.88-.59.06.26-2.87.75Z"/><path class="cls-2" d="M51.71,46.44l1-2.65.32.12-1,2.64Z"/><path class="cls-2" d="M47.51,14l1.68,2.27-.3.22-1.65-2.31Z"/><path class="cls-2" d="M68.88,40.89,70.72,43l-.24.21L68.6,41.17Z"/><path class="cls-2" d="M44.94,16.2,47,18.13l-.27.28-2-2Z"/><path class="cls-2" d="M50.47,42.77,49,45.29l-.28-.16,1.48-2.54Z"/><path class="cls-2" d="M71.91,16.46,70,18.53l-.42-.43,2-1.94Z"/><path class="cls-2" d="M64.76,46.62l-1-2.63.35-.13,1,2.7Z"/><path class="cls-2" d="M60.16,10.73l-.26,2.73-.35,0q.12-1.37.23-2.74Z"/><path class="cls-2" d="M61.52,47.42,61,44.67l.35-.07.52,2.74Z"/><path class="cls-2" d="M67.38,16.35,69,14.06l.28.2-1.62,2.29Z"/><path class="cls-2" d="M43.75,23.18,41.28,22.1l.14-.32,2.48,1Z"/><path class="cls-2" d="M70.88,38.85,73,40.58l-.2.25-2.12-1.69Z"/><path class="cls-2" d="M74,31.07l2.8.37,0,.31-2.8-.32Z"/><path class="cls-2" d="M67.73,45.13l-1.39-2.28.32-.2L68,44.95Z"/><path class="cls-2" d="M73.93,19l-2.27,1.57-.22-.31,2.28-1.51Z"/><path class="cls-2" d="M46.19,39.16,43.9,40.95l-.19-.24,2.23-1.85Z"/><path class="cls-2" d="M53.89,13.93l-.7-2.64.31-.08.76,2.62Z"/></g></g></svg>